<svg width="29" height="29" viewBox="0 0 29 29" fill="none" xmlns="http://www.w3.org/2000/svg">
                            <rect x="1.5" y="1.54883" width="26" height="26" rx="13" stroke="black" stroke-opacity="0.4" style="stroke:black;stroke:black;stroke-opacity:0.4;" stroke-width="2"></rect>
                            <path d="M11.24 18.809H14.0533V14.329H11.24V12.569H16.1333V18.809H19.0933V20.569H11.24V18.809ZM13.6666 9.0623C13.6666 8.72897 13.7867 8.44897 14.04 8.20897C14.28 7.96897 14.6267 7.8623 15.0667 7.8623C15.5067 7.8623 15.8667 7.9823 16.1333 8.20897C16.4 8.44897 16.5333 8.72897 16.5333 9.0623C16.5333 9.39564 16.4 9.68897 16.1333 9.9023C15.8667 10.1156 15.5067 10.2356 15.0667 10.2356C14.6267 10.2356 14.2933 10.129 14.04 9.9023C13.8 9.68897 13.6666 9.40897 13.6666 9.0623Z" fill="black" fill-opacity="0.4"></path>
                        </svg>